<mxfile host="app.diagrams.net" modified="2024-01-22T14:25:24.439Z" agent="Mozilla/5.0 (Windows NT 10.0; Win64; x64; rv:121.0) Gecko/20100101 Firefox/121.0" etag="GDC1law88pfIMOvcLR2Q" version="22.1.21" type="device">
  <diagram name="Page-1" id="grePgRaoDNj7AmUCVbBd">
    <mxGraphModel dx="1195" dy="622" grid="1" gridSize="10" guides="1" tooltips="1" connect="1" arrows="1" fold="1" page="1" pageScale="1" pageWidth="850" pageHeight="1100" math="0" shadow="0">
      <root>
        <mxCell id="0" />
        <mxCell id="1" parent="0" />
        <mxCell id="rNG54FNHqMWdp60zCdtg-136" style="edgeStyle=orthogonalEdgeStyle;shape=connector;rounded=0;sketch=1;jiggle=2;curveFitting=1;orthogonalLoop=1;jettySize=auto;html=1;labelBackgroundColor=default;strokeColor=default;align=center;verticalAlign=middle;fontFamily=Helvetica;fontSize=11;fontColor=default;endArrow=ERmany;endFill=0;startSize=13;endSize=13;" edge="1" parent="1" source="rNG54FNHqMWdp60zCdtg-146" target="rNG54FNHqMWdp60zCdtg-150">
          <mxGeometry relative="1" as="geometry">
            <mxPoint x="158" y="194" as="sourcePoint" />
            <mxPoint x="268" y="194" as="targetPoint" />
          </mxGeometry>
        </mxCell>
        <mxCell id="rNG54FNHqMWdp60zCdtg-137" style="edgeStyle=orthogonalEdgeStyle;shape=connector;rounded=0;sketch=1;jiggle=2;curveFitting=1;orthogonalLoop=1;jettySize=auto;html=1;labelBackgroundColor=default;strokeColor=default;align=center;verticalAlign=middle;fontFamily=Helvetica;fontSize=11;fontColor=default;endArrow=ERmany;endFill=0;startSize=13;endSize=13;" edge="1" parent="1" source="rNG54FNHqMWdp60zCdtg-146" target="rNG54FNHqMWdp60zCdtg-172">
          <mxGeometry relative="1" as="geometry">
            <mxPoint x="93" y="224" as="sourcePoint" />
            <mxPoint x="93" y="363.9999999999999" as="targetPoint" />
          </mxGeometry>
        </mxCell>
        <mxCell id="rNG54FNHqMWdp60zCdtg-138" style="edgeStyle=orthogonalEdgeStyle;rounded=0;orthogonalLoop=1;jettySize=auto;html=1;sketch=1;curveFitting=1;jiggle=2;endArrow=ERmany;endFill=0;endSize=13;startSize=13;" edge="1" parent="1" source="rNG54FNHqMWdp60zCdtg-169" target="rNG54FNHqMWdp60zCdtg-150">
          <mxGeometry relative="1" as="geometry">
            <mxPoint x="318" y="363.9999999999999" as="sourcePoint" />
            <mxPoint x="318" y="224" as="targetPoint" />
          </mxGeometry>
        </mxCell>
        <mxCell id="rNG54FNHqMWdp60zCdtg-139" style="edgeStyle=orthogonalEdgeStyle;shape=connector;rounded=0;sketch=1;jiggle=2;curveFitting=1;orthogonalLoop=1;jettySize=auto;html=1;labelBackgroundColor=default;strokeColor=default;align=center;verticalAlign=middle;fontFamily=Helvetica;fontSize=11;fontColor=default;endArrow=ERmany;endFill=0;startSize=13;endSize=13;" edge="1" parent="1" source="rNG54FNHqMWdp60zCdtg-169" target="rNG54FNHqMWdp60zCdtg-172">
          <mxGeometry relative="1" as="geometry">
            <mxPoint x="259.5" y="317.9999999999999" as="sourcePoint" />
            <mxPoint x="149.5" y="318.0000000000001" as="targetPoint" />
          </mxGeometry>
        </mxCell>
        <mxCell id="rNG54FNHqMWdp60zCdtg-140" style="edgeStyle=orthogonalEdgeStyle;shape=connector;rounded=0;sketch=1;jiggle=2;curveFitting=1;orthogonalLoop=1;jettySize=auto;html=1;labelBackgroundColor=default;strokeColor=default;align=center;verticalAlign=middle;fontFamily=Helvetica;fontSize=11;fontColor=default;endArrow=ERmany;endFill=0;startSize=13;endSize=13;" edge="1" parent="1" source="rNG54FNHqMWdp60zCdtg-169" target="rNG54FNHqMWdp60zCdtg-165">
          <mxGeometry relative="1" as="geometry">
            <mxPoint x="309.5" y="348" as="sourcePoint" />
            <mxPoint x="309.5" y="428" as="targetPoint" />
          </mxGeometry>
        </mxCell>
        <mxCell id="rNG54FNHqMWdp60zCdtg-141" style="edgeStyle=orthogonalEdgeStyle;shape=connector;rounded=0;sketch=1;jiggle=2;curveFitting=1;orthogonalLoop=1;jettySize=auto;html=1;labelBackgroundColor=default;strokeColor=default;align=center;verticalAlign=middle;fontFamily=Helvetica;fontSize=11;fontColor=default;endArrow=ERmany;endFill=0;startSize=13;endSize=13;" edge="1" parent="1" source="rNG54FNHqMWdp60zCdtg-169" target="rNG54FNHqMWdp60zCdtg-157">
          <mxGeometry relative="1" as="geometry">
            <mxPoint x="374.5" y="317.9999999999999" as="sourcePoint" />
            <mxPoint x="494.5" y="317.9999999999999" as="targetPoint" />
          </mxGeometry>
        </mxCell>
        <mxCell id="rNG54FNHqMWdp60zCdtg-142" style="edgeStyle=orthogonalEdgeStyle;shape=connector;rounded=0;sketch=1;jiggle=2;curveFitting=1;orthogonalLoop=1;jettySize=auto;html=1;labelBackgroundColor=default;strokeColor=default;align=center;verticalAlign=middle;fontFamily=Helvetica;fontSize=11;fontColor=default;endArrow=ERmany;endFill=0;startSize=13;endSize=13;" edge="1" parent="1" source="rNG54FNHqMWdp60zCdtg-165" target="rNG54FNHqMWdp60zCdtg-157">
          <mxGeometry relative="1" as="geometry">
            <mxPoint x="374.5" y="458" as="sourcePoint" />
            <mxPoint x="564.5" y="348" as="targetPoint" />
          </mxGeometry>
        </mxCell>
        <mxCell id="rNG54FNHqMWdp60zCdtg-143" style="edgeStyle=orthogonalEdgeStyle;shape=connector;rounded=0;sketch=1;jiggle=2;curveFitting=1;orthogonalLoop=1;jettySize=auto;html=1;labelBackgroundColor=default;strokeColor=default;align=center;verticalAlign=middle;fontFamily=Helvetica;fontSize=11;fontColor=default;endArrow=ERmany;endFill=0;startSize=13;endSize=13;" edge="1" parent="1" source="rNG54FNHqMWdp60zCdtg-150" target="rNG54FNHqMWdp60zCdtg-154">
          <mxGeometry relative="1" as="geometry">
            <mxPoint x="383" y="194" as="sourcePoint" />
            <mxPoint x="503" y="194" as="targetPoint" />
          </mxGeometry>
        </mxCell>
        <mxCell id="rNG54FNHqMWdp60zCdtg-144" style="edgeStyle=orthogonalEdgeStyle;shape=connector;rounded=0;sketch=1;jiggle=2;curveFitting=1;orthogonalLoop=1;jettySize=auto;html=1;labelBackgroundColor=default;strokeColor=default;align=center;verticalAlign=middle;fontFamily=Helvetica;fontSize=11;fontColor=default;endArrow=none;endFill=0;startSize=13;endSize=13;" edge="1" parent="1" source="rNG54FNHqMWdp60zCdtg-154" target="rNG54FNHqMWdp60zCdtg-175">
          <mxGeometry relative="1" as="geometry">
            <mxPoint x="616.5" y="194" as="sourcePoint" />
            <mxPoint x="706.5" y="194" as="targetPoint" />
          </mxGeometry>
        </mxCell>
        <mxCell id="rNG54FNHqMWdp60zCdtg-145" style="edgeStyle=orthogonalEdgeStyle;shape=connector;rounded=0;sketch=1;jiggle=2;curveFitting=1;orthogonalLoop=1;jettySize=auto;html=1;labelBackgroundColor=default;strokeColor=default;align=center;verticalAlign=middle;fontFamily=Helvetica;fontSize=11;fontColor=default;endArrow=ERmany;endFill=0;startSize=13;endSize=13;exitX=0.5;exitY=0;exitDx=0;exitDy=0;" edge="1" parent="1" source="rNG54FNHqMWdp60zCdtg-157" target="rNG54FNHqMWdp60zCdtg-154">
          <mxGeometry relative="1" as="geometry">
            <mxPoint x="546.5" y="354" as="sourcePoint" />
            <mxPoint x="546.5" y="224" as="targetPoint" />
          </mxGeometry>
        </mxCell>
        <mxCell id="rNG54FNHqMWdp60zCdtg-146" value="&lt;p style=&quot;line-height: 30%;&quot;&gt;&lt;i&gt;&lt;font style=&quot;font-size: 11px;&quot;&gt;&amp;lt;&amp;lt;aggregate root&amp;gt;&amp;gt;&lt;/font&gt;&lt;/i&gt;&lt;/p&gt;&lt;div style=&quot;line-height: 30%;&quot;&gt;&lt;font style=&quot;font-size: 16px;&quot;&gt;User&lt;/font&gt;&lt;/div&gt;" style="swimlane;fontStyle=2;align=center;verticalAlign=top;childLayout=stackLayout;horizontal=1;startSize=48;horizontalStack=0;resizeParent=1;resizeLast=0;collapsible=1;marginBottom=0;rounded=0;shadow=0;strokeWidth=1;sketch=1;curveFitting=1;jiggle=2;fontFamily=Roboto;fontSource=https%3A%2F%2Ffonts.googleapis.com%2Fcss%3Ffamily%3DRoboto;fontSize=14;spacingTop=-9;html=1;" vertex="1" collapsed="1" parent="1">
          <mxGeometry x="13" y="140" width="160" height="48" as="geometry">
            <mxRectangle x="13" y="140" width="160" height="108" as="alternateBounds" />
          </mxGeometry>
        </mxCell>
        <mxCell id="rNG54FNHqMWdp60zCdtg-147" value="email" style="text;align=left;verticalAlign=top;spacingLeft=4;spacingRight=4;overflow=hidden;rotatable=0;points=[[0,0.5],[1,0.5]];portConstraint=eastwest;fontFamily=Roboto;fontSource=https%3A%2F%2Ffonts.googleapis.com%2Fcss%3Ffamily%3DRoboto;" vertex="1" parent="rNG54FNHqMWdp60zCdtg-146">
          <mxGeometry y="48" width="160" height="26" as="geometry" />
        </mxCell>
        <mxCell id="rNG54FNHqMWdp60zCdtg-148" value="name" style="text;align=left;verticalAlign=top;spacingLeft=4;spacingRight=4;overflow=hidden;rotatable=0;points=[[0,0.5],[1,0.5]];portConstraint=eastwest;rounded=0;shadow=0;html=0;fontFamily=Roboto;fontSource=https%3A%2F%2Ffonts.googleapis.com%2Fcss%3Ffamily%3DRoboto;" vertex="1" parent="rNG54FNHqMWdp60zCdtg-146">
          <mxGeometry y="74" width="160" height="26" as="geometry" />
        </mxCell>
        <mxCell id="rNG54FNHqMWdp60zCdtg-149" value="" style="line;html=1;strokeWidth=1;align=left;verticalAlign=middle;spacingTop=-1;spacingLeft=3;spacingRight=3;rotatable=0;labelPosition=right;points=[];portConstraint=eastwest;sketch=1;curveFitting=1;jiggle=2;" vertex="1" parent="rNG54FNHqMWdp60zCdtg-146">
          <mxGeometry y="100" width="160" height="8" as="geometry" />
        </mxCell>
        <mxCell id="rNG54FNHqMWdp60zCdtg-150" value="&lt;p style=&quot;line-height: 30%;&quot;&gt;&lt;i&gt;&lt;font style=&quot;font-size: 11px;&quot;&gt;&amp;lt;&amp;lt;aggregate root&amp;gt;&amp;gt;&lt;/font&gt;&lt;/i&gt;&lt;/p&gt;&lt;div style=&quot;line-height: 30%;&quot;&gt;&lt;font style=&quot;font-size: 16px;&quot;&gt;TeamMember&lt;/font&gt;&lt;/div&gt;" style="swimlane;fontStyle=2;align=center;verticalAlign=top;childLayout=stackLayout;horizontal=1;startSize=48;horizontalStack=0;resizeParent=1;resizeLast=0;collapsible=1;marginBottom=0;rounded=0;shadow=0;strokeWidth=1;sketch=1;curveFitting=1;jiggle=2;fontFamily=Roboto;fontSource=https%3A%2F%2Ffonts.googleapis.com%2Fcss%3Ffamily%3DRoboto;fontSize=14;spacingTop=-9;html=1;" vertex="1" collapsed="1" parent="1">
          <mxGeometry x="229.5" y="140" width="160" height="48" as="geometry">
            <mxRectangle x="238" y="140" width="160" height="108" as="alternateBounds" />
          </mxGeometry>
        </mxCell>
        <mxCell id="rNG54FNHqMWdp60zCdtg-151" value="nickname" style="text;align=left;verticalAlign=top;spacingLeft=4;spacingRight=4;overflow=hidden;rotatable=0;points=[[0,0.5],[1,0.5]];portConstraint=eastwest;fontFamily=Roboto;fontSource=https%3A%2F%2Ffonts.googleapis.com%2Fcss%3Ffamily%3DRoboto;" vertex="1" parent="rNG54FNHqMWdp60zCdtg-150">
          <mxGeometry y="48" width="160" height="26" as="geometry" />
        </mxCell>
        <mxCell id="rNG54FNHqMWdp60zCdtg-152" value="role" style="text;align=left;verticalAlign=top;spacingLeft=4;spacingRight=4;overflow=hidden;rotatable=0;points=[[0,0.5],[1,0.5]];portConstraint=eastwest;fontFamily=Roboto;fontSource=https%3A%2F%2Ffonts.googleapis.com%2Fcss%3Ffamily%3DRoboto;" vertex="1" parent="rNG54FNHqMWdp60zCdtg-150">
          <mxGeometry y="74" width="160" height="26" as="geometry" />
        </mxCell>
        <mxCell id="rNG54FNHqMWdp60zCdtg-153" value="" style="line;html=1;strokeWidth=1;align=left;verticalAlign=middle;spacingTop=-1;spacingLeft=3;spacingRight=3;rotatable=0;labelPosition=right;points=[];portConstraint=eastwest;sketch=1;curveFitting=1;jiggle=2;" vertex="1" parent="rNG54FNHqMWdp60zCdtg-150">
          <mxGeometry y="100" width="160" height="8" as="geometry" />
        </mxCell>
        <mxCell id="rNG54FNHqMWdp60zCdtg-154" value="&lt;p style=&quot;line-height: 30%;&quot;&gt;&lt;i&gt;&lt;font style=&quot;font-size: 11px;&quot;&gt;&amp;lt;&amp;lt;aggregate root&amp;gt;&amp;gt;&lt;/font&gt;&lt;/i&gt;&lt;/p&gt;&lt;div style=&quot;line-height: 30%;&quot;&gt;&lt;font style=&quot;font-size: 16px;&quot;&gt;EventResponse&lt;/font&gt;&lt;/div&gt;" style="swimlane;fontStyle=2;align=center;verticalAlign=top;childLayout=stackLayout;horizontal=1;startSize=48;horizontalStack=0;resizeParent=1;resizeLast=0;collapsible=1;marginBottom=0;rounded=0;shadow=0;strokeWidth=1;sketch=1;curveFitting=1;jiggle=2;fontFamily=Roboto;fontSource=https%3A%2F%2Ffonts.googleapis.com%2Fcss%3Ffamily%3DRoboto;fontSize=14;spacingTop=-9;html=1;" vertex="1" collapsed="1" parent="1">
          <mxGeometry x="460" y="140" width="160" height="48" as="geometry">
            <mxRectangle x="468" y="153" width="160" height="82" as="alternateBounds" />
          </mxGeometry>
        </mxCell>
        <mxCell id="rNG54FNHqMWdp60zCdtg-155" value="timestamp" style="text;align=left;verticalAlign=top;spacingLeft=4;spacingRight=4;overflow=hidden;rotatable=0;points=[[0,0.5],[1,0.5]];portConstraint=eastwest;fontFamily=Roboto;fontSource=https%3A%2F%2Ffonts.googleapis.com%2Fcss%3Ffamily%3DRoboto;" vertex="1" parent="rNG54FNHqMWdp60zCdtg-154">
          <mxGeometry y="48" width="160" height="26" as="geometry" />
        </mxCell>
        <mxCell id="rNG54FNHqMWdp60zCdtg-156" value="" style="line;html=1;strokeWidth=1;align=left;verticalAlign=middle;spacingTop=-1;spacingLeft=3;spacingRight=3;rotatable=0;labelPosition=right;points=[];portConstraint=eastwest;sketch=1;curveFitting=1;jiggle=2;" vertex="1" parent="rNG54FNHqMWdp60zCdtg-154">
          <mxGeometry y="74" width="160" height="8" as="geometry" />
        </mxCell>
        <mxCell id="rNG54FNHqMWdp60zCdtg-157" value="&lt;p style=&quot;line-height: 30%;&quot;&gt;&lt;i&gt;&lt;font style=&quot;font-size: 11px;&quot;&gt;&amp;lt;&amp;lt;aggregate root&amp;gt;&amp;gt;&lt;/font&gt;&lt;/i&gt;&lt;/p&gt;&lt;div style=&quot;line-height: 30%;&quot;&gt;&lt;font style=&quot;font-size: 16px;&quot;&gt;Event&lt;/font&gt;&lt;/div&gt;" style="swimlane;fontStyle=2;align=center;verticalAlign=top;childLayout=stackLayout;horizontal=1;startSize=48;horizontalStack=0;resizeParent=1;resizeLast=0;collapsible=1;marginBottom=0;rounded=0;shadow=0;strokeWidth=1;sketch=1;curveFitting=1;jiggle=2;fontFamily=Roboto;fontSource=https%3A%2F%2Ffonts.googleapis.com%2Fcss%3Ffamily%3DRoboto;fontSize=14;spacingTop=-9;html=1;" vertex="1" collapsed="1" parent="1">
          <mxGeometry x="460" y="270" width="160" height="48" as="geometry">
            <mxRectangle x="468" y="284" width="160" height="206" as="alternateBounds" />
          </mxGeometry>
        </mxCell>
        <mxCell id="rNG54FNHqMWdp60zCdtg-158" value="from" style="text;align=left;verticalAlign=top;spacingLeft=4;spacingRight=4;overflow=hidden;rotatable=0;points=[[0,0.5],[1,0.5]];portConstraint=eastwest;fontFamily=Roboto;fontSource=https%3A%2F%2Ffonts.googleapis.com%2Fcss%3Ffamily%3DRoboto;" vertex="1" parent="rNG54FNHqMWdp60zCdtg-157">
          <mxGeometry y="48" width="160" height="26" as="geometry" />
        </mxCell>
        <mxCell id="rNG54FNHqMWdp60zCdtg-159" value="to" style="text;align=left;verticalAlign=top;spacingLeft=4;spacingRight=4;overflow=hidden;rotatable=0;points=[[0,0.5],[1,0.5]];portConstraint=eastwest;fontFamily=Roboto;fontSource=https%3A%2F%2Ffonts.googleapis.com%2Fcss%3Ffamily%3DRoboto;" vertex="1" parent="rNG54FNHqMWdp60zCdtg-157">
          <mxGeometry y="74" width="160" height="26" as="geometry" />
        </mxCell>
        <mxCell id="rNG54FNHqMWdp60zCdtg-160" value="description" style="text;align=left;verticalAlign=top;spacingLeft=4;spacingRight=4;overflow=hidden;rotatable=0;points=[[0,0.5],[1,0.5]];portConstraint=eastwest;fontFamily=Roboto;fontSource=https%3A%2F%2Ffonts.googleapis.com%2Fcss%3Ffamily%3DRoboto;" vertex="1" parent="rNG54FNHqMWdp60zCdtg-157">
          <mxGeometry y="100" width="160" height="26" as="geometry" />
        </mxCell>
        <mxCell id="rNG54FNHqMWdp60zCdtg-161" value="status" style="text;align=left;verticalAlign=top;spacingLeft=4;spacingRight=4;overflow=hidden;rotatable=0;points=[[0,0.5],[1,0.5]];portConstraint=eastwest;fontFamily=Roboto;fontSource=https%3A%2F%2Ffonts.googleapis.com%2Fcss%3Ffamily%3DRoboto;" vertex="1" parent="rNG54FNHqMWdp60zCdtg-157">
          <mxGeometry y="126" width="160" height="24" as="geometry" />
        </mxCell>
        <mxCell id="rNG54FNHqMWdp60zCdtg-162" value="meetTime" style="text;align=left;verticalAlign=top;spacingLeft=4;spacingRight=4;overflow=hidden;rotatable=0;points=[[0,0.5],[1,0.5]];portConstraint=eastwest;fontFamily=Roboto;fontSource=https%3A%2F%2Ffonts.googleapis.com%2Fcss%3Ffamily%3DRoboto;" vertex="1" parent="rNG54FNHqMWdp60zCdtg-157">
          <mxGeometry y="150" width="160" height="24" as="geometry" />
        </mxCell>
        <mxCell id="rNG54FNHqMWdp60zCdtg-163" value="replyClosingTime" style="text;align=left;verticalAlign=top;spacingLeft=4;spacingRight=4;overflow=hidden;rotatable=0;points=[[0,0.5],[1,0.5]];portConstraint=eastwest;fontFamily=Roboto;fontSource=https%3A%2F%2Ffonts.googleapis.com%2Fcss%3Ffamily%3DRoboto;" vertex="1" parent="rNG54FNHqMWdp60zCdtg-157">
          <mxGeometry y="174" width="160" height="24" as="geometry" />
        </mxCell>
        <mxCell id="rNG54FNHqMWdp60zCdtg-164" value="" style="line;html=1;strokeWidth=1;align=left;verticalAlign=middle;spacingTop=-1;spacingLeft=3;spacingRight=3;rotatable=0;labelPosition=right;points=[];portConstraint=eastwest;sketch=1;curveFitting=1;jiggle=2;" vertex="1" parent="rNG54FNHqMWdp60zCdtg-157">
          <mxGeometry y="198" width="160" height="8" as="geometry" />
        </mxCell>
        <mxCell id="rNG54FNHqMWdp60zCdtg-165" value="&lt;p style=&quot;line-height: 30%;&quot;&gt;&lt;i&gt;&lt;font style=&quot;font-size: 11px;&quot;&gt;&amp;lt;&amp;lt;aggregate root&amp;gt;&amp;gt;&lt;/font&gt;&lt;/i&gt;&lt;/p&gt;&lt;div style=&quot;line-height: 30%;&quot;&gt;&lt;font style=&quot;font-size: 16px;&quot;&gt;EventType&lt;/font&gt;&lt;/div&gt;" style="swimlane;fontStyle=2;align=center;verticalAlign=top;childLayout=stackLayout;horizontal=1;startSize=48;horizontalStack=0;resizeParent=1;resizeLast=0;collapsible=1;marginBottom=0;rounded=0;shadow=0;strokeWidth=1;sketch=1;curveFitting=1;jiggle=2;fontFamily=Roboto;fontSource=https%3A%2F%2Ffonts.googleapis.com%2Fcss%3Ffamily%3DRoboto;fontSize=14;spacingTop=-9;html=1;" vertex="1" collapsed="1" parent="1">
          <mxGeometry x="229.5" y="380" width="160" height="48" as="geometry">
            <mxRectangle x="238" y="500" width="160" height="108" as="alternateBounds" />
          </mxGeometry>
        </mxCell>
        <mxCell id="rNG54FNHqMWdp60zCdtg-166" value="name" style="text;align=left;verticalAlign=top;spacingLeft=4;spacingRight=4;overflow=hidden;rotatable=0;points=[[0,0.5],[1,0.5]];portConstraint=eastwest;fontFamily=Roboto;fontSource=https%3A%2F%2Ffonts.googleapis.com%2Fcss%3Ffamily%3DRoboto;" vertex="1" parent="rNG54FNHqMWdp60zCdtg-165">
          <mxGeometry y="48" width="160" height="26" as="geometry" />
        </mxCell>
        <mxCell id="rNG54FNHqMWdp60zCdtg-167" value="description" style="text;align=left;verticalAlign=top;spacingLeft=4;spacingRight=4;overflow=hidden;rotatable=0;points=[[0,0.5],[1,0.5]];portConstraint=eastwest;fontFamily=Roboto;fontSource=https%3A%2F%2Ffonts.googleapis.com%2Fcss%3Ffamily%3DRoboto;" vertex="1" parent="rNG54FNHqMWdp60zCdtg-165">
          <mxGeometry y="74" width="160" height="26" as="geometry" />
        </mxCell>
        <mxCell id="rNG54FNHqMWdp60zCdtg-168" value="" style="line;html=1;strokeWidth=1;align=left;verticalAlign=middle;spacingTop=-1;spacingLeft=3;spacingRight=3;rotatable=0;labelPosition=right;points=[];portConstraint=eastwest;sketch=1;curveFitting=1;jiggle=2;" vertex="1" parent="rNG54FNHqMWdp60zCdtg-165">
          <mxGeometry y="100" width="160" height="8" as="geometry" />
        </mxCell>
        <mxCell id="rNG54FNHqMWdp60zCdtg-169" value="&lt;p style=&quot;line-height: 30%;&quot;&gt;&lt;i&gt;&lt;font style=&quot;font-size: 11px;&quot;&gt;&amp;lt;&amp;lt;aggregate root&amp;gt;&amp;gt;&lt;/font&gt;&lt;/i&gt;&lt;/p&gt;&lt;div style=&quot;line-height: 30%;&quot;&gt;&lt;font style=&quot;font-size: 16px;&quot;&gt;Team&lt;/font&gt;&lt;/div&gt;" style="swimlane;fontStyle=2;align=center;verticalAlign=top;childLayout=stackLayout;horizontal=1;startSize=48;horizontalStack=0;resizeParent=1;resizeLast=0;collapsible=1;marginBottom=0;rounded=0;shadow=0;strokeWidth=1;sketch=1;curveFitting=1;jiggle=2;fontFamily=Roboto;fontSource=https%3A%2F%2Ffonts.googleapis.com%2Fcss%3Ffamily%3DRoboto;fontSize=14;spacingTop=-9;html=1;" vertex="1" collapsed="1" parent="1">
          <mxGeometry x="229.5" y="270" width="160" height="48" as="geometry">
            <mxRectangle x="238" y="346" width="160" height="82" as="alternateBounds" />
          </mxGeometry>
        </mxCell>
        <mxCell id="rNG54FNHqMWdp60zCdtg-170" value="name" style="text;align=left;verticalAlign=top;spacingLeft=4;spacingRight=4;overflow=hidden;rotatable=0;points=[[0,0.5],[1,0.5]];portConstraint=eastwest;fontFamily=Roboto;fontSource=https%3A%2F%2Ffonts.googleapis.com%2Fcss%3Ffamily%3DRoboto;" vertex="1" parent="rNG54FNHqMWdp60zCdtg-169">
          <mxGeometry y="48" width="160" height="26" as="geometry" />
        </mxCell>
        <mxCell id="rNG54FNHqMWdp60zCdtg-171" value="" style="line;html=1;strokeWidth=1;align=left;verticalAlign=middle;spacingTop=-1;spacingLeft=3;spacingRight=3;rotatable=0;labelPosition=right;points=[];portConstraint=eastwest;sketch=1;curveFitting=1;jiggle=2;" vertex="1" parent="rNG54FNHqMWdp60zCdtg-169">
          <mxGeometry y="74" width="160" height="8" as="geometry" />
        </mxCell>
        <mxCell id="rNG54FNHqMWdp60zCdtg-172" value="&lt;p style=&quot;line-height: 30%;&quot;&gt;&lt;i&gt;&lt;font style=&quot;font-size: 11px;&quot;&gt;&amp;lt;&amp;lt;aggregate root&amp;gt;&amp;gt;&lt;/font&gt;&lt;/i&gt;&lt;/p&gt;&lt;div style=&quot;line-height: 30%;&quot;&gt;&lt;font style=&quot;font-size: 16px;&quot;&gt;Invitation&lt;/font&gt;&lt;/div&gt;" style="swimlane;fontStyle=2;align=center;verticalAlign=top;childLayout=stackLayout;horizontal=1;startSize=48;horizontalStack=0;resizeParent=1;resizeLast=0;collapsible=1;marginBottom=0;rounded=0;shadow=0;strokeWidth=1;sketch=1;curveFitting=1;jiggle=2;fontFamily=Roboto;fontSource=https%3A%2F%2Ffonts.googleapis.com%2Fcss%3Ffamily%3DRoboto;fontSize=14;spacingTop=-9;html=1;" vertex="1" collapsed="1" parent="1">
          <mxGeometry x="13" y="270" width="160" height="48" as="geometry">
            <mxRectangle x="13" y="346" width="160" height="82" as="alternateBounds" />
          </mxGeometry>
        </mxCell>
        <mxCell id="rNG54FNHqMWdp60zCdtg-173" value="timestamp" style="text;align=left;verticalAlign=top;spacingLeft=4;spacingRight=4;overflow=hidden;rotatable=0;points=[[0,0.5],[1,0.5]];portConstraint=eastwest;fontFamily=Roboto;fontSource=https%3A%2F%2Ffonts.googleapis.com%2Fcss%3Ffamily%3DRoboto;" vertex="1" parent="rNG54FNHqMWdp60zCdtg-172">
          <mxGeometry y="48" width="160" height="26" as="geometry" />
        </mxCell>
        <mxCell id="rNG54FNHqMWdp60zCdtg-174" value="" style="line;html=1;strokeWidth=1;align=left;verticalAlign=middle;spacingTop=-1;spacingLeft=3;spacingRight=3;rotatable=0;labelPosition=right;points=[];portConstraint=eastwest;sketch=1;curveFitting=1;jiggle=2;" vertex="1" parent="rNG54FNHqMWdp60zCdtg-172">
          <mxGeometry y="74" width="160" height="8" as="geometry" />
        </mxCell>
        <mxCell id="rNG54FNHqMWdp60zCdtg-175" value="&lt;p style=&quot;line-height: 30%;&quot;&gt;&lt;i&gt;&lt;font style=&quot;font-size: 11px;&quot;&gt;&amp;lt;&amp;lt;value object&amp;gt;&amp;gt;&lt;/font&gt;&lt;/i&gt;&lt;/p&gt;&lt;div style=&quot;line-height: 30%;&quot;&gt;&lt;font style=&quot;font-size: 16px;&quot;&gt;EventReply&lt;/font&gt;&lt;/div&gt;" style="swimlane;fontStyle=2;align=center;verticalAlign=top;childLayout=stackLayout;horizontal=1;startSize=48;horizontalStack=0;resizeParent=1;resizeLast=0;collapsible=1;marginBottom=0;rounded=0;shadow=0;strokeWidth=1;sketch=1;curveFitting=1;jiggle=2;fontFamily=Roboto;fontSource=https%3A%2F%2Ffonts.googleapis.com%2Fcss%3Ffamily%3DRoboto;fontSize=14;spacingTop=-9;html=1;" vertex="1" collapsed="1" parent="1">
          <mxGeometry x="666.5" y="140" width="160" height="48" as="geometry">
            <mxRectangle x="678" y="140" width="160" height="108" as="alternateBounds" />
          </mxGeometry>
        </mxCell>
        <mxCell id="rNG54FNHqMWdp60zCdtg-176" value="type" style="text;align=left;verticalAlign=top;spacingLeft=4;spacingRight=4;overflow=hidden;rotatable=0;points=[[0,0.5],[1,0.5]];portConstraint=eastwest;fontFamily=Roboto;fontSource=https%3A%2F%2Ffonts.googleapis.com%2Fcss%3Ffamily%3DRoboto;" vertex="1" parent="rNG54FNHqMWdp60zCdtg-175">
          <mxGeometry y="48" width="160" height="26" as="geometry" />
        </mxCell>
        <mxCell id="rNG54FNHqMWdp60zCdtg-177" value="message" style="text;align=left;verticalAlign=top;spacingLeft=4;spacingRight=4;overflow=hidden;rotatable=0;points=[[0,0.5],[1,0.5]];portConstraint=eastwest;fontFamily=Roboto;fontSource=https%3A%2F%2Ffonts.googleapis.com%2Fcss%3Ffamily%3DRoboto;" vertex="1" parent="rNG54FNHqMWdp60zCdtg-175">
          <mxGeometry y="74" width="160" height="26" as="geometry" />
        </mxCell>
        <mxCell id="rNG54FNHqMWdp60zCdtg-178" value="" style="line;html=1;strokeWidth=1;align=left;verticalAlign=middle;spacingTop=-1;spacingLeft=3;spacingRight=3;rotatable=0;labelPosition=right;points=[];portConstraint=eastwest;sketch=1;curveFitting=1;jiggle=2;" vertex="1" parent="rNG54FNHqMWdp60zCdtg-175">
          <mxGeometry y="100" width="160" height="8" as="geometry" />
        </mxCell>
      </root>
    </mxGraphModel>
  </diagram>
</mxfile>
